<?xml version="1.0" encoding="utf-8"?>
<svg version="1.1" xmlns:xlink="http://www.w3.org/1999/xlink" width="20px" height="20px" viewBox="66 329.5  20 20" xmlns="http://www.w3.org/2000/svg">
  <path d="M 76 329.5  C 81.6 329.5  86 333.9  86 339.5  C 86 345.1  81.6 349.5  76 349.5  C 70.4 349.5  66 345.1  66 339.5  C 66 333.9  70.4 329.5  76 329.5  Z " fill-rule="nonzero" fill="#981654" stroke="none" />
  <path d="M 76 330  C 81.32 330  85.5 334.18  85.5 339.5  C 85.5 344.82  81.32 349  76 349  C 70.68 349  66.5 344.82  66.5 339.5  C 66.5 334.18  70.68 330  76 330  Z " stroke-width="1" stroke="#f3f3f3" fill="none" />
  <path d="M 76 344.5  C 73.2 344.5  71 342.3  71 339.5  C 71 336.7  73.2 334.5  76 334.5  C 78.8 334.5  81 336.7  81 339.5  C 81 342.3  78.8 344.5  76 344.5  " fill-rule="nonzero" fill="#f3f3f3" stroke="none" />
</svg>