<?xml version="1.0" encoding="utf-8"?>
<svg version="1.1" xmlns:xlink="http://www.w3.org/1999/xlink" width="20px" height="20px" viewBox="66 466  20 20" xmlns="http://www.w3.org/2000/svg">
  <path d="M 76 466  C 81.6 466  86 470.4  86 476  C 86 481.6  81.6 486  76 486  C 70.4 486  66 481.6  66 476  C 66 470.4  70.4 466  76 466  Z " fill-rule="nonzero" fill="#981654" stroke="none" />
  <path d="M 76 466.5  C 81.32 466.5  85.5 470.68  85.5 476  C 85.5 481.32  81.32 485.5  76 485.5  C 70.68 485.5  66.5 481.32  66.5 476  C 66.5 470.68  70.68 466.5  76 466.5  Z " stroke-width="1" stroke="#f3f3f3" fill="none" />
  <path d="M 76 481  C 73.2 481  71 478.8  71 476  C 71 473.2  73.2 471  76 471  C 78.8 471  81 473.2  81 476  C 81 478.8  78.8 481  76 481  " fill-rule="nonzero" fill="#f3f3f3" stroke="none" />
</svg>