<?xml version="1.0" encoding="utf-8"?>
<svg version="1.1" xmlns:xlink="http://www.w3.org/1999/xlink" width="20px" height="20px" viewBox="66 526  20 20" xmlns="http://www.w3.org/2000/svg">
  <path d="M 76 526  C 81.6 526  86 530.4  86 536  C 86 541.6  81.6 546  76 546  C 70.4 546  66 541.6  66 536  C 66 530.4  70.4 526  76 526  Z " fill-rule="nonzero" fill="#981654" stroke="none" />
  <path d="M 76 526.5  C 81.32 526.5  85.5 530.68  85.5 536  C 85.5 541.32  81.32 545.5  76 545.5  C 70.68 545.5  66.5 541.32  66.5 536  C 66.5 530.68  70.68 526.5  76 526.5  Z " stroke-width="1" stroke="#f3f3f3" fill="none" />
  <path d="M 76 541  C 73.2 541  71 538.8  71 536  C 71 533.2  73.2 531  76 531  C 78.8 531  81 533.2  81 536  C 81 538.8  78.8 541  76 541  " fill-rule="nonzero" fill="#f3f3f3" stroke="none" />
</svg>