<?xml version="1.0" encoding="utf-8"?>
<svg version="1.1" xmlns:xlink="http://www.w3.org/1999/xlink" width="20px" height="20px" viewBox="66 271  20 20" xmlns="http://www.w3.org/2000/svg">
  <path d="M 76 271  C 81.6 271  86 275.4  86 281  C 86 286.6  81.6 291  76 291  C 70.4 291  66 286.6  66 281  C 66 275.4  70.4 271  76 271  Z " fill-rule="nonzero" fill="#981654" stroke="none" />
  <path d="M 76 271.5  C 81.32 271.5  85.5 275.68  85.5 281  C 85.5 286.32  81.32 290.5  76 290.5  C 70.68 290.5  66.5 286.32  66.5 281  C 66.5 275.68  70.68 271.5  76 271.5  Z " stroke-width="1" stroke="#f3f3f3" fill="none" />
  <path d="M 76 286  C 73.2 286  71 283.8  71 281  C 71 278.2  73.2 276  76 276  C 78.8 276  81 278.2  81 281  C 81 283.8  78.8 286  76 286  " fill-rule="nonzero" fill="#f3f3f3" stroke="none" />
</svg>