<?xml version="1.0" encoding="utf-8"?>
<svg version="1.1" xmlns:xlink="http://www.w3.org/1999/xlink" width="20px" height="20px" viewBox="66 207  20 20" xmlns="http://www.w3.org/2000/svg">
  <path d="M 76 207  C 81.6 207  86 211.4  86 217  C 86 222.6  81.6 227  76 227  C 70.4 227  66 222.6  66 217  C 66 211.4  70.4 207  76 207  Z " fill-rule="nonzero" fill="#981654" stroke="none" />
  <path d="M 76 207.5  C 81.32 207.5  85.5 211.68  85.5 217  C 85.5 222.32  81.32 226.5  76 226.5  C 70.68 226.5  66.5 222.32  66.5 217  C 66.5 211.68  70.68 207.5  76 207.5  Z " stroke-width="1" stroke="#f3f3f3" fill="none" />
  <path d="M 76 222  C 73.2 222  71 219.8  71 217  C 71 214.2  73.2 212  76 212  C 78.8 212  81 214.2  81 217  C 81 219.8  78.8 222  76 222  " fill-rule="nonzero" fill="#f3f3f3" stroke="none" />
</svg>