<?xml version="1.0" encoding="utf-8"?>
<svg version="1.1" xmlns:xlink="http://www.w3.org/1999/xlink" width="20px" height="20px" viewBox="66 267  20 20" xmlns="http://www.w3.org/2000/svg">
  <path d="M 76 267  C 81.6 267  86 271.4  86 277  C 86 282.6  81.6 287  76 287  C 70.4 287  66 282.6  66 277  C 66 271.4  70.4 267  76 267  Z " fill-rule="nonzero" fill="#981654" stroke="none" />
  <path d="M 76 267.5  C 81.32 267.5  85.5 271.68  85.5 277  C 85.5 282.32  81.32 286.5  76 286.5  C 70.68 286.5  66.5 282.32  66.5 277  C 66.5 271.68  70.68 267.5  76 267.5  Z " stroke-width="1" stroke="#f3f3f3" fill="none" />
  <path d="M 76 282  C 73.2 282  71 279.8  71 277  C 71 274.2  73.2 272  76 272  C 78.8 272  81 274.2  81 277  C 81 279.8  78.8 282  76 282  " fill-rule="nonzero" fill="#f3f3f3" stroke="none" />
</svg>