<?xml version="1.0" encoding="utf-8"?>
<svg version="1.1" xmlns:xlink="http://www.w3.org/1999/xlink" width="18px" height="18px" viewBox="29 453.5  18 18" xmlns="http://www.w3.org/2000/svg">
  <path d="M 38 453.5  C 43.04 453.5  47 457.46  47 462.5  C 47 467.54  43.04 471.5  38 471.5  C 32.96 471.5  29 467.54  29 462.5  C 29 457.46  32.96 453.5  38 453.5  Z " fill-rule="nonzero" fill="#ffffff" stroke="none" />
  <path d="M 38 454  C 42.76 454  46.5 457.74  46.5 462.5  C 46.5 467.26  42.76 471  38 471  C 33.24 471  29.5 467.26  29.5 462.5  C 29.5 457.74  33.24 454  38 454  Z " stroke-width="1" stroke="#fa3779" fill="none" />
  <path d="M 38 467  C 35.48 467  33.5 465.02  33.5 462.5  C 33.5 459.98  35.48 458  38 458  C 40.52 458  42.5 459.98  42.5 462.5  C 42.5 465.02  40.52 467  38 467  " fill-rule="nonzero" fill="#fa3779" stroke="none" />
</svg>