<?xml version="1.0" encoding="utf-8"?>
<svg version="1.1" xmlns:xlink="http://www.w3.org/1999/xlink" width="18px" height="18px" viewBox="29 490.5  18 18" xmlns="http://www.w3.org/2000/svg">
  <path d="M 38 490.5  C 43.04 490.5  47 494.46  47 499.5  C 47 504.54  43.04 508.5  38 508.5  C 32.96 508.5  29 504.54  29 499.5  C 29 494.46  32.96 490.5  38 490.5  Z " fill-rule="nonzero" fill="#ffffff" stroke="none" />
  <path d="M 38 491  C 42.76 491  46.5 494.74  46.5 499.5  C 46.5 504.26  42.76 508  38 508  C 33.24 508  29.5 504.26  29.5 499.5  C 29.5 494.74  33.24 491  38 491  Z " stroke-width="1" stroke="#fa3779" fill="none" />
  <path d="M 38 504  C 35.48 504  33.5 502.02  33.5 499.5  C 33.5 496.98  35.48 495  38 495  C 40.52 495  42.5 496.98  42.5 499.5  C 42.5 502.02  40.52 504  38 504  " fill-rule="nonzero" fill="#fa3779" stroke="none" />
</svg>