<?xml version="1.0" encoding="utf-8"?>
<svg version="1.1" xmlns:xlink="http://www.w3.org/1999/xlink" width="18px" height="18px" viewBox="29 416.5  18 18" xmlns="http://www.w3.org/2000/svg">
  <path d="M 38 416.5  C 43.04 416.5  47 420.46  47 425.5  C 47 430.54  43.04 434.5  38 434.5  C 32.96 434.5  29 430.54  29 425.5  C 29 420.46  32.96 416.5  38 416.5  Z " fill-rule="nonzero" fill="#ffffff" stroke="none" />
  <path d="M 38 417  C 42.76 417  46.5 420.74  46.5 425.5  C 46.5 430.26  42.76 434  38 434  C 33.24 434  29.5 430.26  29.5 425.5  C 29.5 420.74  33.24 417  38 417  Z " stroke-width="1" stroke="#fa3779" fill="none" />
  <path d="M 38 430  C 35.48 430  33.5 428.02  33.5 425.5  C 33.5 422.98  35.48 421  38 421  C 40.52 421  42.5 422.98  42.5 425.5  C 42.5 428.02  40.52 430  38 430  " fill-rule="nonzero" fill="#fa3779" stroke="none" />
</svg>