<?xml version="1.0" encoding="utf-8"?>
<svg version="1.1" xmlns:xlink="http://www.w3.org/1999/xlink" width="18px" height="18px" viewBox="29 702.5  18 18" xmlns="http://www.w3.org/2000/svg">
  <path d="M 38 702.5  C 43.04 702.5  47 706.46  47 711.5  C 47 716.54  43.04 720.5  38 720.5  C 32.96 720.5  29 716.54  29 711.5  C 29 706.46  32.96 702.5  38 702.5  Z " fill-rule="nonzero" fill="#ffffff" stroke="none" />
  <path d="M 38 703  C 42.76 703  46.5 706.74  46.5 711.5  C 46.5 716.26  42.76 720  38 720  C 33.24 720  29.5 716.26  29.5 711.5  C 29.5 706.74  33.24 703  38 703  Z " stroke-width="1" stroke="#fa3779" fill="none" />
  <path d="M 38 716  C 35.48 716  33.5 714.02  33.5 711.5  C 33.5 708.98  35.48 707  38 707  C 40.52 707  42.5 708.98  42.5 711.5  C 42.5 714.02  40.52 716  38 716  " fill-rule="nonzero" fill="#fa3779" stroke="none" />
</svg>