<?xml version="1.0" encoding="utf-8"?>
<svg version="1.1" xmlns:xlink="http://www.w3.org/1999/xlink" width="20px" height="20px" viewBox="66 283.5  20 20" xmlns="http://www.w3.org/2000/svg">
  <path d="M 76 283.5  C 81.6 283.5  86 287.9  86 293.5  C 86 299.1  81.6 303.5  76 303.5  C 70.4 303.5  66 299.1  66 293.5  C 66 287.9  70.4 283.5  76 283.5  Z " fill-rule="nonzero" fill="#981654" stroke="none" />
  <path d="M 76 284  C 81.32 284  85.5 288.18  85.5 293.5  C 85.5 298.82  81.32 303  76 303  C 70.68 303  66.5 298.82  66.5 293.5  C 66.5 288.18  70.68 284  76 284  Z " stroke-width="1" stroke="#f3f3f3" fill="none" />
  <path d="M 76 298.5  C 73.2 298.5  71 296.3  71 293.5  C 71 290.7  73.2 288.5  76 288.5  C 78.8 288.5  81 290.7  81 293.5  C 81 296.3  78.8 298.5  76 298.5  " fill-rule="nonzero" fill="#f3f3f3" stroke="none" />
</svg>