<?xml version="1.0" encoding="utf-8"?>
<svg version="1.1" xmlns:xlink="http://www.w3.org/1999/xlink" width="20px" height="20px" viewBox="66 437  20 20" xmlns="http://www.w3.org/2000/svg">
  <path d="M 76 437  C 81.6 437  86 441.4  86 447  C 86 452.6  81.6 457  76 457  C 70.4 457  66 452.6  66 447  C 66 441.4  70.4 437  76 437  Z " fill-rule="nonzero" fill="#981654" stroke="none" />
  <path d="M 76 437.5  C 81.32 437.5  85.5 441.68  85.5 447  C 85.5 452.32  81.32 456.5  76 456.5  C 70.68 456.5  66.5 452.32  66.5 447  C 66.5 441.68  70.68 437.5  76 437.5  Z " stroke-width="1" stroke="#f3f3f3" fill="none" />
  <path d="M 76 452  C 73.2 452  71 449.8  71 447  C 71 444.2  73.2 442  76 442  C 78.8 442  81 444.2  81 447  C 81 449.8  78.8 452  76 452  " fill-rule="nonzero" fill="#f3f3f3" stroke="none" />
</svg>