<?xml version="1.0" encoding="utf-8"?>
<svg version="1.1" xmlns:xlink="http://www.w3.org/1999/xlink" width="20px" height="20px" viewBox="66 402  20 20" xmlns="http://www.w3.org/2000/svg">
  <path d="M 76 402  C 81.6 402  86 406.4  86 412  C 86 417.6  81.6 422  76 422  C 70.4 422  66 417.6  66 412  C 66 406.4  70.4 402  76 402  Z " fill-rule="nonzero" fill="#981654" stroke="none" />
  <path d="M 76 402.5  C 81.32 402.5  85.5 406.68  85.5 412  C 85.5 417.32  81.32 421.5  76 421.5  C 70.68 421.5  66.5 417.32  66.5 412  C 66.5 406.68  70.68 402.5  76 402.5  Z " stroke-width="1" stroke="#f3f3f3" fill="none" />
  <path d="M 76 417  C 73.2 417  71 414.8  71 412  C 71 409.2  73.2 407  76 407  C 78.8 407  81 409.2  81 412  C 81 414.8  78.8 417  76 417  " fill-rule="nonzero" fill="#f3f3f3" stroke="none" />
</svg>