<?xml version="1.0" encoding="utf-8"?>
<svg version="1.1" xmlns:xlink="http://www.w3.org/1999/xlink" width="20px" height="20px" viewBox="66 471.5  20 20" xmlns="http://www.w3.org/2000/svg">
  <path d="M 76 471.5  C 81.6 471.5  86 475.9  86 481.5  C 86 487.1  81.6 491.5  76 491.5  C 70.4 491.5  66 487.1  66 481.5  C 66 475.9  70.4 471.5  76 471.5  Z " fill-rule="nonzero" fill="#981654" stroke="none" />
  <path d="M 76 472  C 81.32 472  85.5 476.18  85.5 481.5  C 85.5 486.82  81.32 491  76 491  C 70.68 491  66.5 486.82  66.5 481.5  C 66.5 476.18  70.68 472  76 472  Z " stroke-width="1" stroke="#f3f3f3" fill="none" />
  <path d="M 76 486.5  C 73.2 486.5  71 484.3  71 481.5  C 71 478.7  73.2 476.5  76 476.5  C 78.8 476.5  81 478.7  81 481.5  C 81 484.3  78.8 486.5  76 486.5  " fill-rule="nonzero" fill="#f3f3f3" stroke="none" />
</svg>