<?xml version="1.0" encoding="utf-8"?>
<svg version="1.1" xmlns:xlink="http://www.w3.org/1999/xlink" width="20px" height="20px" viewBox="66 367.5  20 20" xmlns="http://www.w3.org/2000/svg">
  <path d="M 76 367.5  C 81.6 367.5  86 371.9  86 377.5  C 86 383.1  81.6 387.5  76 387.5  C 70.4 387.5  66 383.1  66 377.5  C 66 371.9  70.4 367.5  76 367.5  Z " fill-rule="nonzero" fill="#981654" stroke="none" />
  <path d="M 76 368  C 81.32 368  85.5 372.18  85.5 377.5  C 85.5 382.82  81.32 387  76 387  C 70.68 387  66.5 382.82  66.5 377.5  C 66.5 372.18  70.68 368  76 368  Z " stroke-width="1" stroke="#f3f3f3" fill="none" />
  <path d="M 76 382.5  C 73.2 382.5  71 380.3  71 377.5  C 71 374.7  73.2 372.5  76 372.5  C 78.8 372.5  81 374.7  81 377.5  C 81 380.3  78.8 382.5  76 382.5  " fill-rule="nonzero" fill="#f3f3f3" stroke="none" />
</svg>