<?xml version="1.0" encoding="utf-8"?>
<svg version="1.1" xmlns:xlink="http://www.w3.org/1999/xlink" width="20px" height="20px" viewBox="66 284  20 20" xmlns="http://www.w3.org/2000/svg">
  <path d="M 76 284  C 81.6 284  86 288.4  86 294  C 86 299.6  81.6 304  76 304  C 70.4 304  66 299.6  66 294  C 66 288.4  70.4 284  76 284  Z " fill-rule="nonzero" fill="#981654" stroke="none" />
  <path d="M 76 284.5  C 81.32 284.5  85.5 288.68  85.5 294  C 85.5 299.32  81.32 303.5  76 303.5  C 70.68 303.5  66.5 299.32  66.5 294  C 66.5 288.68  70.68 284.5  76 284.5  Z " stroke-width="1" stroke="#f3f3f3" fill="none" />
  <path d="M 76 299  C 73.2 299  71 296.8  71 294  C 71 291.2  73.2 289  76 289  C 78.8 289  81 291.2  81 294  C 81 296.8  78.8 299  76 299  " fill-rule="nonzero" fill="#f3f3f3" stroke="none" />
</svg>